<svg width="18" height="21" viewBox="0 0 18 21" fill="none" xmlns="http://www.w3.org/2000/svg">
<path d="M9 0.540955C4.029 0.540955 0 4.90942 0 10.2968C0 15.6842 4.029 20.0527 9 20.0527C13.971 20.0527 18 15.6842 18 10.2968C18 4.90942 13.971 0.540955 9 0.540955ZM9 18.7519C4.699 18.7519 1.2 14.9591 1.2 10.2968C1.2 5.63461 4.699 1.84174 9 1.84174C13.301 1.84174 16.8 5.63461 16.8 10.2968C16.8 14.9591 13.301 18.7519 9 18.7519ZM8.999 14.0908C8.447 14.0908 7.999 14.5764 7.999 15.1748C7.999 15.7731 8.447 16.2588 8.999 16.2588C9.551 16.2588 9.999 15.7731 9.999 15.1748C9.999 14.5764 9.552 14.0908 8.999 14.0908ZM9.604 4.37718C8.75 4.1864 7.875 4.4097 7.207 4.99939C6.54 5.588 6.157 6.45952 6.157 7.39067H7.357C7.357 6.85301 7.578 6.34896 7.964 6.00858C8.356 5.66388 8.851 5.53488 9.36 5.65087C9.996 5.79504 10.514 6.38473 10.62 7.08498C10.709 7.66817 10.542 8.23834 10.162 8.64917L9.013 9.89468C8.75 10.1819 8.4 10.648 8.4 11.3927V12.4648H9.6V11.3927C9.6 11.202 9.642 11.0545 9.862 10.815L11.01 9.57056C11.667 8.85947 11.956 7.87738 11.804 6.8736C11.616 5.63569 10.732 4.633 9.604 4.37718Z" fill="black"/>
</svg>
