<svg width="18" height="20" viewBox="0 0 18 20" fill="none" xmlns="http://www.w3.org/2000/svg">
<path d="M16.376 7.84431C16.208 7.17441 15.96 6.52401 15.634 5.90831L16.319 4.15876L14.408 2.08617L12.794 2.8287C12.225 2.47641 11.626 2.2065 11.007 2.02439L10.352 0.265076H7.648L6.992 2.02547C6.374 2.2065 5.774 2.47641 5.206 2.8287L3.592 2.08617L1.68 4.15876L2.365 5.90831C2.04 6.52401 1.791 7.17441 1.624 7.84431L0 8.55541V11.4854L1.624 12.1965C1.791 12.8675 2.04 13.5168 2.366 14.1336L1.68 15.8832L3.592 17.9557L5.206 17.2132C5.775 17.5666 6.374 17.8354 6.993 18.0175L7.648 19.7768H10.351L11.007 18.0175C11.625 17.8354 12.225 17.5666 12.794 17.2132L14.408 17.9557L16.32 15.8832L15.635 14.1336C15.961 13.5168 16.209 12.8675 16.377 12.1965L18 11.4865V8.55541L16.376 7.84431ZM15.927 10.9911L15.374 11.2329L15.218 11.8572C15.077 12.4209 14.867 12.9694 14.593 13.4875L14.298 14.048L14.53 14.642L14.899 15.584L14.132 16.4154L13.264 16.0154L12.716 15.7628L12.199 16.0837C11.721 16.3796 11.215 16.6083 10.694 16.7612L10.119 16.9303L9.896 17.5286L9.542 18.4761H8.458L8.105 17.5297L7.882 16.9314L7.306 16.7623C6.785 16.6094 6.28 16.3807 5.802 16.0848L5.285 15.7639L4.736 16.0154L3.868 16.4154L3.101 15.584L3.47 14.6431L3.703 14.049L3.407 13.4886C3.134 12.9705 2.923 12.422 2.782 11.8572L2.626 11.2339L2.073 10.9911L1.2 10.6085V9.43343L2.073 9.05079L2.625 8.80906L2.781 8.18577C2.922 7.62101 3.133 7.07251 3.406 6.55437L3.702 5.99395L3.47 5.39992L3.101 4.45794L3.868 3.62652L4.737 4.02651L5.285 4.27908L5.802 3.95822C6.28 3.66229 6.786 3.43465 7.307 3.28073L7.882 3.11162L8.105 2.51326L8.458 1.56586H9.543L9.896 2.51218L10.119 3.11054L10.694 3.27964C11.215 3.43248 11.721 3.66121 12.199 3.95713L12.716 4.27799L13.264 4.02543L14.133 3.62543L14.9 4.45685L14.53 5.39992L14.297 5.99395L14.593 6.55437C14.866 7.07143 15.076 7.61993 15.218 8.18468L15.374 8.80797L15.927 9.0497L16.8 9.43343V10.6085L15.927 10.9911ZM9 5.46821C7.878 5.46821 6.823 5.94191 6.03 6.80152C5.237 7.66112 4.8 8.80472 4.8 10.021C4.8 11.2372 5.237 12.3808 6.03 13.2404C6.823 14.1 7.878 14.5737 9 14.5737C10.122 14.5737 11.176 14.1 11.97 13.2404C12.764 12.3808 13.2 11.2372 13.2 10.021C13.2 8.80472 12.763 7.66112 11.97 6.80152C11.177 5.94191 10.122 5.46821 9 5.46821ZM11.121 12.3201C10.536 12.9553 9.768 13.2729 9 13.2729C8.232 13.2729 7.464 12.9553 6.878 12.3201C5.707 11.0507 5.707 8.99117 6.878 7.72182C7.464 7.0866 8.232 6.769 9 6.769C9.768 6.769 10.536 7.0866 11.121 7.72182C12.293 8.99117 12.293 11.0507 11.121 12.3201Z" fill="black"/>
</svg>
